<svg xmlns="http://www.w3.org/2000/svg" viewBox="0 0 235.46 324.91"><defs><style>.cls-1{fill:#231f20;}</style></defs><title>Asset 2</title><g id="Layer_2" data-name="Layer 2"><g id="Layer_2-2" data-name="Layer 2"><path class="cls-1" d="M106,314.53a68.56,68.56,0,0,1,11.37.47c-1.52-.22,1.55.31,1.45.29,1.5.32,3,.62,4.49,1,1,.25,2,.55,2.92.85,1.63.49,2.4,1,.37,0,7.29,3.41,13.59,6.52,21.75,7.43,17.5,2,35.06-5.37,49.48-14.72,24.72-16,42.22-43.69,36.54-74-1.59-8.47-5.12-16.5-8.43-24.39a186.85,186.85,0,0,0-10-21.19c-6.68-11.58-14.57-22.33-20.91-34.14-5-9.2-9.48-18.62-13.75-28.15-.82-1.82-1.62-3.65-2.42-5.48-.41-1-2.31-5.42-.91-2.09q-1.25-3-2.45-6c-4.74-11.8-9-23.86-14.45-35.37C153.74,63.54,145.56,48,134.25,34.87,121,19.45,103.36,8.46,84.72.77c-7.27-3-16.8,3.24-18.45,10.48C64.28,20,69,26.48,76.75,29.7c-3.29-1.36,1.81.84,2.43,1.13,1.85.87,3.68,1.8,5.48,2.77a117.74,117.74,0,0,1,12.11,7.49c.91.64,1.81,1.3,2.7,2-.47-.36-1.74-1.44.34.28.93.77,1.86,1.53,2.77,2.32a104,104,0,0,1,8,7.62q1.78,1.92,3.46,3.93c.21.25,2.09,2.62,1.1,1.33s.8,1.12,1,1.39c2.25,3.15,4.31,6.42,6.26,9.76,3.83,6.56,7.28,13.36,10.67,20.15.85,1.69,1.68,3.38,2.48,5.09.38.82.75,1.64,1.12,2.47.19.42.36.84.55,1.26,1,2.2-1.2-3-.53-1.26,2,5.09,4.05,10.13,6.06,15.2,5.33,13.48,10.86,26.86,17.05,40a333.2,333.2,0,0,0,23.33,41.82,175.42,175.42,0,0,1,16.37,30.92c1.54,3.8,3,7.62,4.25,11.54.46,1.49.88,3,1.24,4.53a23.29,23.29,0,0,0,.53,2.51c.59,1.66-.07-2.51.07.34.08,1.66.19,3.3.14,5,0,.84-.14,1.69-.16,2.53,0-.23.48-2.5.11-.73-.41,1.94-.76,3.86-1.31,5.78-.27.93-.57,1.86-.89,2.78-.17.5-1.43,3.43-.33,1a60.72,60.72,0,0,1-4.89,8.68c-.65,1-2.83,3.63-.93,1.4-1.21,1.42-2.39,2.85-3.67,4.21-1.51,1.61-3.1,3.15-4.75,4.61-.75.67-1.55,1.28-2.29,1.94-1.54,1.38,3.38-2.39.68-.52a125.59,125.59,0,0,1-13.87,8.54c-.8.41-1.6.81-2.42,1.2-.13.07-4.2,1.74-1.7.79-1.9.72-3.82,1.4-5.77,2-1,.29-2,.56-3,.8,0,0-3.87.74-2.71.57,1.57-.22-1.71.12-2,.13-1.36.07-2.71,0-4.07,0-.23,0-2.86-.34-.95,0-1-.16-1.92-.46-2.89-.67-3.44-.78,2.23,1.4-1.16-.42a87.28,87.28,0,0,0-10.57-4.9c-9.38-3.52-20.1-4.59-30.07-4.34-7.83.19-15.36,6.76-15,15,.36,8,6.6,15.2,15,15Z"/><path class="cls-1" d="M16.13,216C.93,230.66-4.09,254.53,3.49,274.17a53.11,53.11,0,0,0,31.37,31.26c16.34,6.31,35.07,1.83,44-13.83,1.58-2.78,2.83-5.73,4.52-8.46a17,17,0,0,1,5.67-5.58c.69-.37,1.38-.77,2.06-1.14,2.2-1.22-1.64.53.65-.36a39.85,39.85,0,0,1,5-1.54c1-.25,5.84-.91,3.08-.66,1.78-.16,3.54-.27,5.32-.33,7.84-.26,15.37-6.72,15-15-.35-7.91-6.6-15.28-15-15-18.28.6-35.72,7-46.44,22.54a80.48,80.48,0,0,0-4.88,8.69c-.36.69-3.25,4.9-1,2.26a14.63,14.63,0,0,1-1.75,1.77,2.22,2.22,0,0,1,1.72-1.06c-.09.61-5,.67-2,.58a24.23,24.23,0,0,1-3.07-.1c1.44.16,1.25.07-.57-.28-1.45-.5-3-.81-4.38-1.43,2.28,1-2.42-1.47-2.87-1.75-.73-.45-1.45-.93-2.15-1.44,1,.82,1.13.86.28.13a34.09,34.09,0,0,1-3.59-3.72c1.75,2.18-1.2-2.1-1.48-2.6s-1.83-4.24-.6-.93a48.35,48.35,0,0,1-2.21-7.64c-.09-.43-.17-.86-.24-1.3-.25-1.65-.17-1.07.22,1.72a7.64,7.64,0,0,0-.18-2.2c-.07-1.23,0-2.45,0-3.67q.25-2.85-.09-.63c.15-.95.34-1.91.57-2.85.36-1.53,1.07-3,1.39-4.55.4-1,.3-.82-.29.67.33-.71.68-1.42,1.06-2.11.67-1.25,1.43-2.44,2.21-3.62,1.8-2.75.57.23-.26.23.46,0,2.28-2.54,2.78-3,5.83-5.62,5.65-15.56,0-21.21a15.23,15.23,0,0,0-21.22,0Z"/></g></g></svg>